<svg xmlns="http://www.w3.org/2000/svg" width="1100" height="1100" viewBox="0 0 1100 1100"><g transform="translate(-410 -725)"><g transform="translate(460 775)" fill="none" stroke="#fff" stroke-width="1"><circle cx="500" cy="500" r="500" stroke="none"/><circle cx="500" cy="500" r="499.5" fill="none"/></g><g transform="translate(410 725)" fill="none" stroke="#fff" stroke-width="2"><circle cx="550" cy="550" r="550" stroke="none"/><circle cx="550" cy="550" r="549" fill="none"/></g><g transform="translate(510 825)" fill="none" stroke="#fff" stroke-width="1"><circle cx="450" cy="450" r="450" stroke="none"/><circle cx="450" cy="450" r="449.5" fill="none"/></g><g transform="translate(560 875)" fill="none" stroke="#fff" stroke-width="1"><circle cx="400" cy="400" r="400" stroke="none"/><circle cx="400" cy="400" r="399.5" fill="none"/></g><g transform="translate(610 925)" fill="none" stroke="#fff" stroke-width="1"><circle cx="350" cy="350" r="350" stroke="none"/><circle cx="350" cy="350" r="349.5" fill="none"/></g><path d="M17191-947v200" transform="translate(-16230 1672)" fill="none" stroke="#fff" stroke-width="2"/><path d="M17191-947v200" transform="translate(-16230 2572)" fill="none" stroke="#fff" stroke-width="2"/><path d="M17191-947v200" transform="translate(563 -15916) rotate(90)" fill="none" stroke="#fff" stroke-width="2"/><path d="M17191-947v200" transform="translate(-337 -15916) rotate(90)" fill="none" stroke="#fff" stroke-width="2"/></g></svg>