{
	"asset":{
		"version":"2.0",
		"generator":"Created using the official Cinema 4D glTF Exporter 1.000x284978"
	},
	"scenes":[{
		"nodes":[0]
	}],
	"nodes":[{
		"name":"Sweep",
		"mesh":0
	}],
	"meshes":[{
		"name":"Sweep",
		"primitives":[{
			"attributes":{
				"POSITION":1,
				"NORMAL":2,
				"TEXCOORD_0":3
			},
			"indices":0
		}]
	}],
	"accessors":[{
		"bufferView":0,
		"type":"SCALAR",
		"componentType":5123,
		"count":15768,
		"byteOffset":0,
		"min":[0],
		"max":[2857]
	},
	{
		"bufferView":1,
		"type":"VEC3",
		"componentType":5126,
		"count":2858,
		"byteOffset":0,
		"min":[-2990.862548828125,
		43.832759857177737,
		-671.5741577148438],
		"max":[1450.5755615234376,
		1134.3604736328126,
		1086.7320556640626]
	},
	{
		"bufferView":1,
		"type":"VEC3",
		"componentType":5126,
		"count":2858,
		"byteOffset":12,
		"min":[-0.9998943209648132,
		-0.9999784231185913,
		-0.9998432993888855],
		"max":[0.9979718923568726,
		0.9999773502349854,
		0.9998455047607422]
	},
	{
		"bufferView":1,
		"type":"VEC2",
		"componentType":5126,
		"count":2858,
		"byteOffset":24,
		"min":[0.0,
		0.0],
		"max":[1.0,
		1.0]
	}],
	"bufferViews":[{
		"buffer":0,
		"byteOffset":0,
		"byteLength":31536,
		"target":34963
	},
	{
		"buffer":0,
		"byteOffset":31536,
		"byteLength":91456,
		"target":34962,
		"byteStride":32
	}],
	"buffers":[{
		"uri":"data:application/octet-stream;base64,",
		"byteLength":122992
	}]
}